<?xml version="1.0" encoding="utf-8"?>
<!-- Generator: Adobe Illustrator 23.0.1, SVG Export Plug-In . SVG Version: 6.00 Build 0)  -->
<svg version="1.1" xmlns="http://www.w3.org/2000/svg" xmlns:xlink="http://www.w3.org/1999/xlink" x="0px" y="0px"
	 viewBox="0 0 200 200" style="enable-background:new 0 0 200 200;" xml:space="preserve">
<style type="text/css">
	.st0{fill:#ECEADC;}
	.st1{fill:#4D251E;}
	.st2{fill:#C1DBDC;}
	.st3{fill:#EFEFD2;}
	.st4{fill:#9EC1E3;}
	.st5{fill:#EBE849;}
	.st6{fill:#F68C2E;}
	.st7{fill:#FFFFFF;}
	.st8{fill:#AABB5B;}
	.st9{fill:#FEE7DC;}
	.st10{fill:none;stroke:#4D251E;stroke-width:7;stroke-miterlimit:10;}
</style>
<g id="Whale_1_">
	<g id="Background_1_">
		<g id="X_1_">
		</g>
		<g id="X">
		</g>
	</g>
	<g id="Body">
	</g>
	<g id="Fin">
	</g>
</g>
<g id="Boat">
	<g id="Background">
		<path id="Circle_x5F_Background_1_" class="st0" d="M140.9,96.01c0,29.23-23.7,52.93-52.93,52.93s-52.93-23.7-52.93-52.93
			s23.7-52.93,52.93-52.93S140.9,66.78,140.9,96.01z"/>
		<path id="O_3_" class="st1" d="M29.32,109.34c-4.98,0-9.03-4.05-9.03-9.03c0-4.98,4.05-9.03,9.03-9.03s9.03,4.05,9.03,9.03
			C38.36,105.29,34.31,109.34,29.32,109.34z M29.32,96.99c-1.82,0-3.31,1.49-3.31,3.31c0,1.83,1.49,3.31,3.31,3.31
			c1.83,0,3.31-1.49,3.31-3.31C32.64,98.48,31.15,96.99,29.32,96.99z"/>
		<path id="O_2_" class="st1" d="M132.32,86.45c-4.98,0-9.03-4.05-9.03-9.03s4.05-9.03,9.03-9.03c4.98,0,9.03,4.05,9.03,9.03
			S137.3,86.45,132.32,86.45z M132.32,74.1c-1.83,0-3.31,1.49-3.31,3.31c0,1.83,1.49,3.31,3.31,3.31c1.82,0,3.31-1.49,3.31-3.31
			C135.63,75.59,134.14,74.1,132.32,74.1z"/>
		<path id="Circle_3_" class="st1" d="M76.66,71.7c0,2.44-1.98,4.43-4.42,4.43s-4.42-1.98-4.42-4.43c0-2.44,1.98-4.42,4.42-4.42
			S76.66,69.25,76.66,71.7z"/>
		<path id="Circle_2_" class="st1" d="M171.07,100.3c0,2.44-1.98,4.42-4.42,4.42c-2.44,0-4.42-1.98-4.42-4.42
			c0-2.44,1.98-4.42,4.42-4.42C169.09,95.88,171.07,97.86,171.07,100.3z"/>
		<g id="Layer_9">
			<path class="st1" d="M28.66,46.71c-0.73,0-1.46-0.28-2.02-0.84L16.52,35.76c-1.12-1.12-1.12-2.93,0-4.04
				c1.12-1.12,2.93-1.12,4.04,0l10.11,10.11c1.12,1.12,1.12,2.93,0,4.04C30.12,46.43,29.39,46.71,28.66,46.71z"/>
			<path class="st1" d="M18.55,46.71c-0.73,0-1.46-0.28-2.02-0.84c-1.12-1.12-1.12-2.93,0-4.04l10.11-10.11
				c1.12-1.12,2.93-1.12,4.05,0c1.12,1.12,1.12,2.93,0,4.04L20.57,45.87C20.01,46.43,19.28,46.71,18.55,46.71z"/>
		</g>
		<g id="Layer_8">
			<path class="st1" d="M163.12,40.99c-0.73,0-1.46-0.28-2.02-0.84l-10.11-10.11c-1.12-1.12-1.12-2.93,0-4.04
				c1.12-1.12,2.93-1.12,4.04,0l10.11,10.11c1.12,1.12,1.12,2.93,0,4.04C164.58,40.71,163.85,40.99,163.12,40.99z"/>
			<path class="st1" d="M153.01,40.99c-0.73,0-1.47-0.28-2.02-0.84c-1.12-1.12-1.12-2.93,0-4.04L161.1,26
				c1.12-1.12,2.93-1.12,4.04,0c1.12,1.12,1.12,2.93,0,4.04l-10.11,10.11C154.47,40.71,153.74,40.99,153.01,40.99z"/>
		</g>
	</g>
	<path id="Wave" class="st1" d="M46.02,174.84c-2.01,0-4.03-0.37-5.97-1.11l-18.18-6.99c-1.47-0.57-2.21-2.22-1.65-3.7
		c0.57-1.48,2.23-2.22,3.69-1.65l18.18,6.99c3.04,1.17,6.42,0.92,9.26-0.68l3.49-1.97c5.5-3.1,12.17-2.84,17.41,0.67
		c3.35,2.25,7.64,2.46,11.19,0.56l3.41-1.82c5.13-2.74,11.17-2.62,16.18,0.3l3.37,1.96c2.97,1.73,6.63,1.96,9.79,0.59l8.81-3.79
		c4.87-2.1,10.5-1.73,15.06,0.98l3.21,1.91c3.19,1.89,7.08,2.04,10.4,0.4l12.1-5.99c1.42-0.71,3.13-0.12,3.84,1.29
		c0.7,1.42,0.12,3.13-1.29,3.83l-12.1,6c-5.07,2.51-11,2.28-15.86-0.61l-3.21-1.91c-3-1.78-6.69-2.02-9.88-0.64l-8.81,3.8
		c-4.82,2.08-10.4,1.74-14.93-0.9l-3.37-1.96c-3.29-1.92-7.26-1.99-10.61-0.2l-3.4,1.82c-5.42,2.9-11.97,2.57-17.07-0.86
		c-3.44-2.31-7.81-2.48-11.42-0.44l-3.49,1.97C51.65,174.12,48.85,174.84,46.02,174.84z"/>
	<g id="Seat">
		<path id="Seat_x5F_Fill" class="st5" d="M75.83,141.7H61.12v-21.02c8.12,0,14.71,6.59,14.71,14.71V141.7z"/>
		<path id="Seat_x5F_Outline" class="st1" d="M75.83,144.56H61.12c-1.58,0-2.86-1.28-2.86-2.86v-21.02c0-1.58,1.28-2.86,2.86-2.86
			c9.69,0,17.57,7.88,17.57,17.57v6.3C78.69,143.28,77.41,144.56,75.83,144.56z M63.98,138.84h8.99v-3.44
			c0-5.55-3.83-10.22-8.99-11.5V138.84z"/>
	</g>
	<path id="Paddle" class="st1" d="M92.26,134.63c-1.58,0-2.86-1.28-2.86-2.86v-8.58c0-1.58,1.28-2.86,2.86-2.86
		c1.58,0,2.86,1.28,2.86,2.86v8.58C95.12,133.35,93.84,134.63,92.26,134.63z"/>
	<path id="Boat_x5F_Fill" class="st6" d="M176.71,126.99L32.19,137.5v17.17l8.9,2.1c3.83,1.47,8.12,1.16,11.69-0.86l3.49-1.97
		c4.52-2.55,10.1-2.34,14.41,0.56c4.22,2.83,9.65,3.1,14.13,0.71l3.4-1.82c4.21-2.24,9.28-2.15,13.4,0.25l3.37,1.96
		c3.77,2.2,8.36,2.47,12.36,0.75l8.81-3.79c4.05-1.74,8.68-1.44,12.47,0.81l3.22,1.91c1.37,0.81,2.84,1.35,4.36,1.65
		C176.68,150.36,176.71,126.99,176.71,126.99z"/>
	<path id="Boat_x5F_Outline" class="st1" d="M46.02,160.54c-1.95,0-3.9-0.35-5.78-1.04l-8.72-2.05c-1.29-0.31-2.21-1.46-2.21-2.78
		V137.5c0-1.5,1.16-2.75,2.66-2.85l144.52-10.51c0.78-0.05,1.57,0.22,2.16,0.76c0.58,0.54,0.91,1.3,0.91,2.1
		c0,0.27-0.06,6.69-4.2,13.93c-3.77,6.58-11.79,15.19-28.57,18.79c-0.38,0.09-0.77,0.09-1.16,0.01c-1.89-0.38-3.66-1.05-5.26-1.99
		l-3.22-1.91c-2.99-1.78-6.68-2.02-9.87-0.64l-8.81,3.8c-4.81,2.08-10.4,1.74-14.94-0.9l-3.37-1.96c-3.24-1.89-7.31-1.96-10.61-0.2
		l-3.41,1.82c-5.42,2.89-11.97,2.57-17.07-0.86c-3.44-2.31-7.81-2.47-11.42-0.44l-3.49,1.97C51.65,159.81,48.85,160.54,46.02,160.54
		z M35.05,152.4l6.69,1.58c0.12,0.03,0.25,0.07,0.37,0.11c3.04,1.17,6.42,0.92,9.26-0.68l3.49-1.97c5.5-3.1,12.16-2.85,17.41,0.67
		c3.35,2.25,7.64,2.46,11.19,0.56l3.41-1.82c5.11-2.73,11.17-2.62,16.18,0.3l3.37,1.96c2.97,1.73,6.63,1.95,9.79,0.59l8.81-3.8
		c4.87-2.1,10.5-1.73,15.06,0.98l3.22,1.91c0.88,0.52,1.85,0.92,2.9,1.18c21.01-4.74,26.06-17.83,27.26-23.89L35.05,140.16V152.4z"
		/>
</g>
<g id="Dolphin">
	<g id="Background_2_">
		<g id="X_3_">
		</g>
		<g id="X_2_">
		</g>
	</g>
	<g id="Fin_1_">
	</g>
	<g id="Body_1_">
	</g>
</g>
<g id="Bubbles_1_">
	<g id="Background_3_">
		<g id="X_4_">
		</g>
	</g>
	<g id="Bubbles">
	</g>
	<g id="Fish">
	</g>
</g>
<g id="Seagull">
	<g id="Background_4_">
		<g id="X_6_">
		</g>
		<g id="X_5_">
		</g>
	</g>
	<g id="Beak">
	</g>
	<g id="Body_2_">
	</g>
	<g id="Wing">
	</g>
</g>
<g id="Mermaid">
	<g id="Background_5_">
		<g id="X_7_">
		</g>
	</g>
	<g id="Tail">
	</g>
	<g id="Body_3_">
	</g>
	<g id="Hair">
	</g>
</g>
<g id="Calm_Waves">
	<g id="Background_6_">
		<g id="X_8_">
		</g>
	</g>
	<g id="Waves">
	</g>
</g>
<g id="Crashing_Waves">
	<g id="Background_7_">
		<g id="X_10_">
		</g>
		<g id="X_9_">
		</g>
	</g>
</g>
</svg>
