<?xml version="1.0" encoding="utf-8"?>
<!-- Generator: Adobe Illustrator 23.0.1, SVG Export Plug-In . SVG Version: 6.00 Build 0)  -->
<svg version="1.1" xmlns="http://www.w3.org/2000/svg" xmlns:xlink="http://www.w3.org/1999/xlink" x="0px" y="0px"
	 viewBox="0 0 200 200" style="enable-background:new 0 0 200 200;" xml:space="preserve">
<style type="text/css">
	.st0{fill:#ECEADC;}
	.st1{fill:#4D251E;}
	.st2{fill:#C1DBDC;}
	.st3{fill:#EFEFD2;}
	.st4{fill:#9EC1E3;}
	.st5{fill:#EBE849;}
	.st6{fill:#F68C2E;}
	.st7{fill:#FFFFFF;}
	.st8{fill:#AABB5B;}
	.st9{fill:#FEE7DC;}
	.st10{fill:none;stroke:#4D251E;stroke-width:7;stroke-miterlimit:10;}
</style>
<g id="Whale_1_">
	<g id="Background_1_">
		<g id="X_1_">
		</g>
		<g id="X">
		</g>
	</g>
	<g id="Body">
	</g>
	<g id="Fin">
	</g>
</g>
<g id="Boat">
	<g id="Background">
		<g id="Layer_9">
		</g>
		<g id="Layer_8">
		</g>
	</g>
	<g id="Seat">
	</g>
</g>
<g id="Dolphin">
	<g id="Background_2_">
		<g id="X_3_">
		</g>
		<g id="X_2_">
		</g>
	</g>
	<g id="Fin_1_">
	</g>
	<g id="Body_1_">
	</g>
</g>
<g id="Bubbles_1_">
	<g id="Background_3_">
		<path id="Circle_x5F_Background_3_" class="st0" d="M162.79,118.29c0,28.01-22.71,50.72-50.72,50.72s-50.72-22.71-50.72-50.72
			c0-28.01,22.71-50.72,50.72-50.72S162.79,90.28,162.79,118.29z"/>
		<path id="O_7_" class="st1" d="M149.09,35.11c-4.77,0-8.66-3.88-8.66-8.66s3.88-8.66,8.66-8.66c4.77,0,8.66,3.88,8.66,8.66
			S153.86,35.11,149.09,35.11z M149.09,23.28c-1.75,0-3.17,1.42-3.17,3.17s1.42,3.17,3.17,3.17c1.75,0,3.17-1.42,3.17-3.17
			S150.83,23.28,149.09,23.28z"/>
		<path id="O_6_" class="st1" d="M25.72,152.99c-4.77,0-8.66-3.88-8.66-8.66s3.88-8.66,8.66-8.66s8.65,3.88,8.65,8.66
			S30.5,152.99,25.72,152.99z M25.72,141.16c-1.75,0-3.17,1.42-3.17,3.17s1.42,3.17,3.17,3.17c1.75,0,3.17-1.42,3.17-3.17
			S27.47,141.16,25.72,141.16z"/>
		<path id="Circle_9_" class="st1" d="M32.7,73.06c0,2.34-1.9,4.24-4.24,4.24s-4.24-1.9-4.24-4.24s1.9-4.24,4.24-4.24
			S32.7,70.71,32.7,73.06z"/>
		<path id="Circle_8_" class="st1" d="M178,114.18c0,2.34-1.9,4.24-4.24,4.24c-2.34,0-4.24-1.9-4.24-4.24s1.9-4.24,4.24-4.24
			C176.1,109.94,178,111.83,178,114.18z"/>
		<path id="Circle_7_" class="st1" d="M95.82,175.05c0,1.11-0.9,2.01-2.01,2.01c-1.11,0-2.01-0.9-2.01-2.01
			c0-1.11,0.9-2.01,2.01-2.01C94.92,173.04,95.82,173.94,95.82,175.05z"/>
		<g id="X_4_">
			<path id="Path_5_" class="st1" d="M45.55,38.15c-0.7,0-1.4-0.27-1.94-0.8c-1.07-1.07-1.07-2.81,0-3.88l9.69-9.69
				c1.07-1.07,2.81-1.07,3.88,0c1.07,1.07,1.07,2.8,0,3.88l-9.69,9.69C46.95,37.88,46.25,38.15,45.55,38.15z"/>
			<path id="Path_4_" class="st1" d="M55.24,38.15c-0.7,0-1.4-0.27-1.94-0.8l-9.69-9.69c-1.07-1.07-1.07-2.81,0-3.88
				c1.07-1.07,2.81-1.07,3.88,0l9.69,9.69c1.07,1.07,1.07,2.81,0,3.88C56.64,37.88,55.94,38.15,55.24,38.15z"/>
		</g>
	</g>
	<path id="Wave_1_" class="st1" d="M52.7,56.76c-1.93,0-3.87-0.35-5.72-1.07L29.55,49c-1.41-0.54-2.12-2.13-1.58-3.54
		c0.54-1.41,2.13-2.12,3.54-1.58l17.42,6.7c2.92,1.12,6.15,0.89,8.87-0.65l3.35-1.89c5.27-2.97,11.67-2.72,16.68,0.64
		c3.21,2.15,7.32,2.36,10.73,0.54l3.26-1.74c4.9-2.62,10.7-2.51,15.51,0.29l3.23,1.88c2.85,1.66,6.35,1.87,9.38,0.57l8.44-3.63
		c4.67-2.01,10.07-1.66,14.43,0.93l3.08,1.83c3.05,1.81,6.78,1.96,9.96,0.38l11.6-5.74c1.36-0.67,3-0.11,3.67,1.24
		c0.67,1.36,0.12,3-1.24,3.67l-11.6,5.74c-4.86,2.41-10.54,2.19-15.2-0.58l-3.08-1.83c-2.87-1.7-6.41-1.93-9.46-0.61l-8.44,3.64
		c-4.61,1.99-9.97,1.67-14.31-0.86l-3.23-1.88c-3.15-1.84-6.95-1.91-10.16-0.19l-3.26,1.74c-5.19,2.78-11.47,2.46-16.36-0.83
		c-3.3-2.21-7.49-2.36-10.94-0.42l-3.35,1.89C58.08,56.06,55.4,56.76,52.7,56.76z M52.54,176.92c-2.81,0-5.62-0.75-8.13-2.24
		l-3.08-1.83c-2.87-1.7-6.41-1.93-9.46-0.61l-8.44,3.64c-1.4,0.6-3.01-0.05-3.6-1.43c-0.6-1.39,0.04-3,1.43-3.6l8.44-3.64
		c4.67-2.01,10.07-1.66,14.43,0.93l3.08,1.83c3.05,1.82,6.78,1.96,9.96,0.38c1.37-0.67,3-0.12,3.68,1.24c0.67,1.36,0.12,3-1.24,3.68
		C57.37,176.37,54.95,176.92,52.54,176.92z M141.23,80.61c-3.1,0-6.19-0.91-8.86-2.7c-3.3-2.21-7.49-2.36-10.94-0.42
		c-1.32,0.75-2.99,0.28-3.73-1.04c-0.75-1.32-0.28-2.99,1.04-3.73c5.27-2.97,11.66-2.72,16.68,0.64c3.21,2.16,7.32,2.36,10.73,0.54
		l3.26-1.74c4.9-2.62,10.7-2.51,15.51,0.29l3.23,1.88c1.31,0.76,1.75,2.44,0.99,3.75c-0.76,1.31-2.44,1.75-3.75,0.99l-3.23-1.88
		c-3.15-1.84-6.95-1.91-10.16-0.19l-3.26,1.74C146.37,79.99,143.79,80.61,141.23,80.61z M146.71,176.56c-3.1,0-6.19-0.91-8.86-2.7
		c-3.3-2.21-7.49-2.36-10.94-0.42c-1.32,0.75-2.99,0.28-3.73-1.04c-0.74-1.32-0.28-2.99,1.04-3.73c5.27-2.97,11.66-2.72,16.68,0.64
		c3.21,2.15,7.32,2.36,10.73,0.54l3.26-1.74c4.9-2.62,10.7-2.51,15.51,0.29l3.23,1.88c1.31,0.76,1.75,2.44,0.99,3.75
		c-0.77,1.31-2.44,1.75-3.75,0.99l-3.23-1.88c-3.15-1.83-6.95-1.9-10.16-0.19l-3.26,1.74C151.85,175.93,149.28,176.56,146.71,176.56
		z"/>
	<g id="Bubbles">
		<path id="Bubble5" class="st1" d="M62.07,99.33c-10.71,0-19.43-8.71-19.43-19.43s8.71-19.43,19.43-19.43S81.5,69.19,81.5,79.9
			S72.79,99.33,62.07,99.33z M62.07,72.79c-3.93,0-7.12,3.19-7.12,7.12c0,3.93,3.2,7.12,7.12,7.12c3.92,0,7.12-3.19,7.12-7.12
			C69.19,75.98,65.99,72.79,62.07,72.79z"/>
		<path id="Bubble4" class="st1" d="M102.62,99.66c-6.97,0-12.64-5.67-12.64-12.64s5.67-12.64,12.64-12.64
			c6.97,0,12.64,5.67,12.64,12.64S109.59,99.66,102.62,99.66z M102.62,82.39c-2.55,0-4.63,2.08-4.63,4.63s2.08,4.63,4.63,4.63
			c2.55,0,4.63-2.08,4.63-4.63S105.17,82.39,102.62,82.39z"/>
		<path id="Bubble3" class="st1" d="M84.82,121.97c-5,0-9.06-4.06-9.06-9.06s4.06-9.06,9.06-9.06c5,0,9.06,4.06,9.06,9.06
			S89.82,121.97,84.82,121.97z M84.82,109.59c-1.83,0-3.32,1.49-3.32,3.32s1.49,3.32,3.32,3.32c1.83,0,3.32-1.49,3.32-3.32
			S86.65,109.59,84.82,109.59z"/>
		<path id="Bubble2" class="st1" d="M107.25,125.3c-3.94,0-7.15-3.21-7.15-7.15s3.21-7.15,7.15-7.15c3.94,0,7.15,3.21,7.15,7.15
			S111.19,125.3,107.25,125.3z M107.25,115.53c-1.44,0-2.62,1.18-2.62,2.62s1.18,2.62,2.62,2.62c1.44,0,2.62-1.18,2.62-2.62
			S108.7,115.53,107.25,115.53z"/>
		<path id="Bubble1" class="st1" d="M110.95,141.76c-2.86,0-5.19-2.33-5.19-5.19s2.33-5.19,5.19-5.19s5.19,2.33,5.19,5.19
			S113.81,141.76,110.95,141.76z M110.95,134.68c-1.05,0-1.9,0.85-1.9,1.9s0.85,1.9,1.9,1.9c1.05,0,1.9-0.85,1.9-1.9
			S112,134.68,110.95,134.68z"/>
	</g>
	<g id="Fish">
		<path id="Fish_x5F_Fill" class="st2" d="M158.31,146.27c0,0-8.29,13.88-18.51,13.88c-10.22,0-18.51-6.21-18.51-13.88
			c0-7.66,8.29-13.88,18.51-13.88C150.03,132.39,158.31,146.27,158.31,146.27z M170.52,157.6c-5.11-2.19-9.2-5.7-11.5-11.5
			c2.66-5.48,6.79-8.91,11.5-11.5V157.6z"/>
		<path id="Fish_x5F_Outlne" class="st1" d="M139.81,163.23c-11.9,0-21.59-7.61-21.59-16.96c0-9.35,9.68-16.96,21.59-16.96
			c11.83,0,20.78,14.76,21.15,15.38c0.58,0.97,0.58,2.19,0,3.16C160.59,148.47,151.64,163.23,139.81,163.23z M139.81,135.47
			c-8.36,0-15.42,4.94-15.42,10.79s7.06,10.79,15.42,10.79c6.02,0,12.01-6.77,14.83-10.79
			C151.82,142.24,145.82,135.47,139.81,135.47z M170.52,160.69c-0.41,0-0.83-0.08-1.21-0.25c-6.42-2.75-10.72-7.07-13.16-13.2
			c-0.32-0.8-0.29-1.71,0.09-2.49c2.64-5.43,6.7-9.51,12.79-12.86c0.96-0.53,2.12-0.51,3.05,0.05c0.94,0.55,1.52,1.56,1.52,2.65
			v23.01c0,1.04-0.52,2-1.39,2.57C171.71,160.52,171.12,160.69,170.52,160.69z M162.43,146.22c1.19,2.48,2.83,4.49,5,6.11v-12
			C165.33,142.05,163.71,143.97,162.43,146.22z"/>
		<path id="Eye_2_" class="st1" d="M135.9,144.72c0,1.25-1.01,2.26-2.26,2.26c-1.25,0-2.26-1.01-2.26-2.26
			c0-1.25,1.01-2.26,2.26-2.26C134.89,142.46,135.9,143.47,135.9,144.72z"/>
	</g>
</g>
<g id="Seagull">
	<g id="Background_4_">
		<g id="X_6_">
		</g>
		<g id="X_5_">
		</g>
	</g>
	<g id="Beak">
	</g>
	<g id="Body_2_">
	</g>
	<g id="Wing">
	</g>
</g>
<g id="Mermaid">
	<g id="Background_5_">
		<g id="X_7_">
		</g>
	</g>
	<g id="Tail">
	</g>
	<g id="Body_3_">
	</g>
	<g id="Hair">
	</g>
</g>
<g id="Calm_Waves">
	<g id="Background_6_">
		<g id="X_8_">
		</g>
	</g>
	<g id="Waves">
	</g>
</g>
<g id="Crashing_Waves">
	<g id="Background_7_">
		<g id="X_10_">
		</g>
		<g id="X_9_">
		</g>
	</g>
</g>
</svg>
