<?xml version="1.0" encoding="utf-8"?>
<!-- Generator: Adobe Illustrator 23.0.1, SVG Export Plug-In . SVG Version: 6.00 Build 0)  -->
<svg version="1.1" xmlns="http://www.w3.org/2000/svg" xmlns:xlink="http://www.w3.org/1999/xlink" x="0px" y="0px"
	 viewBox="0 0 200 200" style="enable-background:new 0 0 200 200;" xml:space="preserve">
<style type="text/css">
	.st0{fill:#ECEADC;}
	.st1{fill:#4D251E;}
	.st2{fill:#C1DBDC;}
	.st3{fill:#EFEFD2;}
	.st4{fill:#9EC1E3;}
	.st5{fill:#EBE849;}
	.st6{fill:#F68C2E;}
	.st7{fill:#FFFFFF;}
	.st8{fill:#AABB5B;}
	.st9{fill:#FEE7DC;}
	.st10{fill:none;stroke:#4D251E;stroke-width:7;stroke-miterlimit:10;}
</style>
<g id="Whale_1_">
	<g id="Background_1_">
		<g id="X_1_">
		</g>
		<g id="X">
		</g>
	</g>
	<g id="Body">
	</g>
	<g id="Fin">
	</g>
</g>
<g id="Boat">
	<g id="Background">
		<g id="Layer_9">
		</g>
		<g id="Layer_8">
		</g>
	</g>
	<g id="Seat">
	</g>
</g>
<g id="Dolphin">
	<g id="Background_2_">
		<g id="X_3_">
		</g>
		<g id="X_2_">
		</g>
	</g>
	<g id="Fin_1_">
	</g>
	<g id="Body_1_">
	</g>
</g>
<g id="Bubbles_1_">
	<g id="Background_3_">
		<g id="X_4_">
		</g>
	</g>
	<g id="Bubbles">
	</g>
	<g id="Fish">
	</g>
</g>
<g id="Seagull">
	<g id="Background_4_">
		<g id="X_6_">
		</g>
		<g id="X_5_">
		</g>
	</g>
	<g id="Beak">
	</g>
	<g id="Body_2_">
	</g>
	<g id="Wing">
	</g>
</g>
<g id="Mermaid">
	<g id="Background_5_">
		<g id="X_7_">
		</g>
	</g>
	<g id="Tail">
	</g>
	<g id="Body_3_">
	</g>
	<g id="Hair">
	</g>
</g>
<g id="Calm_Waves">
	<g id="Background_6_">
		<path id="Circle_x5F_Background_6_" class="st0" d="M138.51,89.47c0,29.23-23.7,52.93-52.93,52.93s-52.93-23.7-52.93-52.93
			s23.7-52.93,52.93-52.93S138.51,60.24,138.51,89.47z"/>
		<path id="Circle_15_" class="st1" d="M116.84,46.12c0,2.28-1.85,4.12-4.12,4.12s-4.12-1.85-4.12-4.12s1.85-4.12,4.12-4.12
			S116.84,43.84,116.84,46.12z"/>
		<g id="X_8_">
			<path id="Path_11_" class="st1" d="M46.94,62c-0.68,0-1.36-0.26-1.88-0.78c-1.04-1.04-1.04-2.73,0-3.77l9.42-9.42
				c1.04-1.04,2.73-1.04,3.77,0c1.04,1.04,1.04,2.73,0,3.77l-9.42,9.42C48.3,61.74,47.62,62,46.94,62z"/>
			<path id="Path_10_" class="st1" d="M56.36,62c-0.68,0-1.36-0.26-1.89-0.78l-9.42-9.42c-1.04-1.04-1.04-2.73,0-3.77
				c1.04-1.04,2.73-1.04,3.77,0l9.42,9.42c1.04,1.04,1.04,2.73,0,3.77C57.72,61.74,57.04,62,56.36,62z"/>
		</g>
		<path id="O_12_" class="st1" d="M92.73,86.52c-4.64,0-8.42-3.77-8.42-8.42c0-4.64,3.78-8.42,8.42-8.42c4.64,0,8.42,3.78,8.42,8.42
			C101.15,82.75,97.37,86.52,92.73,86.52z M92.73,75.02c-1.7,0-3.09,1.38-3.09,3.08c0,1.7,1.38,3.09,3.09,3.09
			c1.7,0,3.09-1.38,3.09-3.09C95.82,76.41,94.43,75.02,92.73,75.02z"/>
		<path id="O_13_" class="st1" d="M163.46,75.92c-4.64,0-8.42-3.77-8.42-8.42c0-4.64,3.78-8.42,8.42-8.42
			c4.64,0,8.42,3.78,8.42,8.42C171.88,72.15,168.1,75.92,163.46,75.92z M163.46,64.42c-1.7,0-3.09,1.38-3.09,3.08
			c0,1.7,1.38,3.09,3.09,3.09c1.7,0,3.09-1.38,3.09-3.09C166.55,65.81,165.16,64.42,163.46,64.42z"/>
	</g>
	<g id="Waves">
		<path id="Wave_2_" class="st1" d="M51.02,107.84c-2.01,0-4.03-0.37-5.97-1.11l-18.18-6.99c-1.47-0.57-2.21-2.22-1.65-3.7
			c0.57-1.48,2.23-2.22,3.69-1.65l18.18,6.99c3.04,1.17,6.42,0.92,9.26-0.68l3.49-1.97c5.5-3.1,12.17-2.84,17.41,0.67
			c3.35,2.25,7.64,2.46,11.19,0.56l3.41-1.82c5.13-2.74,11.17-2.62,16.18,0.3l3.37,1.96c2.97,1.73,6.63,1.96,9.79,0.59l8.81-3.79
			c4.87-2.1,10.5-1.73,15.06,0.98l3.21,1.91c3.19,1.89,7.08,2.04,10.4,0.4l12.1-5.99c1.42-0.71,3.13-0.12,3.84,1.29
			c0.7,1.42,0.12,3.13-1.29,3.83l-12.1,6c-5.07,2.51-11,2.28-15.86-0.61l-3.21-1.91c-3-1.78-6.69-2.02-9.88-0.64l-8.81,3.8
			c-4.82,2.08-10.4,1.74-14.93-0.9l-3.37-1.96c-3.29-1.92-7.26-1.99-10.61-0.2l-3.4,1.82c-5.42,2.9-11.97,2.57-17.07-0.86
			c-3.44-2.31-7.81-2.48-11.42-0.44l-3.49,1.97C56.65,107.12,53.85,107.84,51.02,107.84z"/>
		<path id="Wave_3_" class="st1" d="M51.02,127.87c-2.01,0-4.03-0.37-5.97-1.11l-18.18-6.99c-1.47-0.57-2.21-2.22-1.65-3.7
			c0.57-1.48,2.23-2.22,3.69-1.65l18.18,6.99c3.04,1.17,6.42,0.92,9.26-0.68l3.49-1.97c5.5-3.1,12.17-2.84,17.41,0.67
			c3.35,2.25,7.64,2.46,11.19,0.56l3.41-1.82c5.13-2.74,11.17-2.62,16.18,0.3l3.37,1.96c2.97,1.73,6.63,1.96,9.79,0.59l8.81-3.79
			c4.87-2.1,10.5-1.73,15.06,0.98l3.21,1.91c3.19,1.89,7.08,2.04,10.4,0.4l12.1-5.99c1.42-0.71,3.13-0.12,3.84,1.29
			c0.7,1.42,0.12,3.13-1.29,3.83l-12.1,6c-5.07,2.51-11,2.28-15.86-0.61l-3.21-1.91c-3-1.78-6.69-2.02-9.88-0.64l-8.81,3.8
			c-4.82,2.08-10.4,1.74-14.93-0.9l-3.37-1.96c-3.29-1.92-7.26-1.99-10.61-0.2l-3.4,1.82c-5.42,2.9-11.97,2.57-17.07-0.86
			c-3.44-2.31-7.81-2.48-11.42-0.44l-3.49,1.97C56.65,127.15,53.85,127.87,51.02,127.87z"/>
		<path id="Wave_4_" class="st1" d="M51.02,149.15c-2.01,0-4.03-0.37-5.97-1.11l-18.18-6.99c-1.47-0.57-2.21-2.22-1.65-3.7
			c0.57-1.48,2.23-2.22,3.69-1.65l18.18,6.99c3.04,1.17,6.42,0.92,9.26-0.68l3.49-1.97c5.5-3.1,12.17-2.84,17.41,0.67
			c3.35,2.25,7.64,2.46,11.19,0.56l3.41-1.82c5.13-2.74,11.17-2.62,16.18,0.3l3.37,1.96c2.97,1.73,6.63,1.96,9.79,0.59l8.81-3.79
			c4.87-2.1,10.5-1.73,15.06,0.98l3.21,1.91c3.19,1.89,7.08,2.04,10.4,0.4l12.1-5.99c1.42-0.71,3.13-0.12,3.84,1.29
			c0.7,1.42,0.12,3.13-1.29,3.83l-12.1,6c-5.07,2.51-11,2.28-15.86-0.61l-3.21-1.91c-3-1.78-6.69-2.02-9.88-0.64l-8.81,3.8
			c-4.82,2.08-10.4,1.74-14.93-0.9l-3.37-1.96c-3.29-1.92-7.26-1.99-10.61-0.2l-3.4,1.82c-5.42,2.9-11.97,2.57-17.07-0.86
			c-3.44-2.31-7.81-2.48-11.42-0.44L59.18,147C56.65,148.43,53.85,149.15,51.02,149.15z"/>
		<path id="Wave_5_" class="st1" d="M51.02,170.08c-2.01,0-4.03-0.37-5.97-1.11l-18.18-6.99c-1.47-0.57-2.21-2.22-1.65-3.7
			c0.57-1.48,2.23-2.22,3.69-1.65l18.18,6.99c3.04,1.17,6.42,0.92,9.26-0.68l3.49-1.97c5.5-3.1,12.17-2.84,17.41,0.67
			c3.35,2.25,7.64,2.46,11.19,0.56l3.41-1.82c5.13-2.74,11.17-2.62,16.18,0.3l3.37,1.96c2.97,1.73,6.63,1.96,9.79,0.59l8.81-3.79
			c4.87-2.1,10.5-1.73,15.06,0.98l3.21,1.91c3.19,1.89,7.08,2.04,10.4,0.4l12.1-5.99c1.42-0.71,3.13-0.12,3.84,1.29
			c0.7,1.42,0.12,3.13-1.29,3.83l-12.1,6c-5.07,2.51-11,2.28-15.86-0.61l-3.21-1.91c-3-1.78-6.69-2.02-9.88-0.64l-8.81,3.8
			c-4.82,2.08-10.4,1.74-14.93-0.9l-3.37-1.96c-3.29-1.92-7.26-1.99-10.61-0.2l-3.4,1.82c-5.42,2.9-11.97,2.57-17.07-0.86
			c-3.44-2.31-7.81-2.48-11.42-0.44l-3.49,1.97C56.65,169.36,53.85,170.08,51.02,170.08z"/>
	</g>
</g>
<g id="Crashing_Waves">
	<g id="Background_7_">
		<g id="X_10_">
		</g>
		<g id="X_9_">
		</g>
	</g>
</g>
</svg>
