<?xml version="1.0" encoding="utf-8"?>
<!-- Generator: Adobe Illustrator 23.0.1, SVG Export Plug-In . SVG Version: 6.00 Build 0)  -->
<svg version="1.1" xmlns="http://www.w3.org/2000/svg" xmlns:xlink="http://www.w3.org/1999/xlink" x="0px" y="0px"
	 viewBox="0 0 200 200" style="enable-background:new 0 0 200 200;" xml:space="preserve">
<style type="text/css">
	.st0{fill:#ECEADC;}
	.st1{fill:#4D251E;}
	.st2{fill:#C1DBDC;}
	.st3{fill:#EFEFD2;}
	.st4{fill:#9EC1E3;}
	.st5{fill:#EBE849;}
	.st6{fill:#F68C2E;}
	.st7{fill:#FFFFFF;}
	.st8{fill:#AABB5B;}
	.st9{fill:#FEE7DC;}
	.st10{fill:none;stroke:#4D251E;stroke-width:7;stroke-miterlimit:10;}
</style>
<g id="Whale_1_">
	<g id="Background_1_">
		<g id="X_1_">
		</g>
		<g id="X">
		</g>
	</g>
	<g id="Body">
	</g>
	<g id="Fin">
	</g>
</g>
<g id="Boat">
	<g id="Background">
		<g id="Layer_9">
		</g>
		<g id="Layer_8">
		</g>
	</g>
	<g id="Seat">
	</g>
</g>
<g id="Dolphin">
	<g id="Background_2_">
		<g id="X_3_">
		</g>
		<g id="X_2_">
		</g>
	</g>
	<g id="Fin_1_">
	</g>
	<g id="Body_1_">
	</g>
</g>
<g id="Bubbles_1_">
	<g id="Background_3_">
		<g id="X_4_">
		</g>
	</g>
	<g id="Bubbles">
	</g>
	<g id="Fish">
	</g>
</g>
<g id="Seagull">
	<g id="Background_4_">
		<g id="X_6_">
		</g>
		<g id="X_5_">
		</g>
	</g>
	<g id="Beak">
	</g>
	<g id="Body_2_">
	</g>
	<g id="Wing">
	</g>
</g>
<g id="Mermaid">
	<g id="Background_5_">
		<g id="X_7_">
		</g>
	</g>
	<g id="Tail">
	</g>
	<g id="Body_3_">
	</g>
	<g id="Hair">
	</g>
</g>
<g id="Calm_Waves">
	<g id="Background_6_">
		<g id="X_8_">
		</g>
	</g>
	<g id="Waves">
	</g>
</g>
<g id="Crashing_Waves">
	<g id="Background_7_">
		<path id="Circle_x5F_Background_7_" class="st0" d="M154.68,107.32c0,27.64-22.41,50.05-50.05,50.05
			c-27.64,0-50.05-22.41-50.05-50.05s22.41-50.05,50.05-50.05C132.27,57.28,154.68,79.68,154.68,107.32z"/>
		<path id="O_15_" class="st1" d="M29.75,174.52c-4.71,0-8.54-3.83-8.54-8.54c0-4.71,3.83-8.54,8.54-8.54
			c4.71,0,8.54,3.83,8.54,8.54C38.29,170.69,34.46,174.52,29.75,174.52z M29.75,162.85c-1.73,0-3.13,1.4-3.13,3.13
			c0,1.73,1.41,3.13,3.13,3.13c1.73,0,3.13-1.4,3.13-3.13C32.88,164.26,31.48,162.85,29.75,162.85z"/>
		<path id="O_14_" class="st1" d="M154.63,60.18c-4.71,0-8.54-3.83-8.54-8.54s3.83-8.54,8.54-8.54c4.71,0,8.54,3.83,8.54,8.54
			S159.34,60.18,154.63,60.18z M154.63,48.51c-1.73,0-3.13,1.4-3.13,3.13s1.41,3.13,3.13,3.13c1.73,0,3.13-1.4,3.13-3.13
			S156.36,48.51,154.63,48.51z"/>
		<path id="Circle_17_" class="st1" d="M52.87,176.8c0,2.31-1.87,4.18-4.18,4.18s-4.18-1.87-4.18-4.18s1.87-4.18,4.18-4.18
			S52.87,174.49,52.87,176.8z"/>
		<path id="Circle_16_" class="st1" d="M63.69,74.01c0,2.31-1.87,4.18-4.19,4.18c-2.31,0-4.18-1.87-4.18-4.18
			c0-2.31,1.87-4.18,4.18-4.18C61.82,69.82,63.69,71.7,63.69,74.01z"/>
		<g id="X_10_">
			<path id="Path_17_" class="st1" d="M27.67,53.23c-0.69,0-1.38-0.26-1.91-0.79c-1.06-1.06-1.06-2.77,0-3.82l9.56-9.56
				c1.06-1.06,2.77-1.06,3.82,0c1.06,1.06,1.06,2.77,0,3.82l-9.56,9.56C29.06,52.96,28.36,53.23,27.67,53.23z"/>
			<path id="Path_16_" class="st1" d="M37.24,53.23c-0.69,0-1.38-0.26-1.91-0.79l-9.56-9.56c-1.06-1.06-1.06-2.77,0-3.82
				c1.06-1.06,2.77-1.06,3.82,0l9.56,9.56c1.06,1.06,1.06,2.77,0,3.82C38.62,52.96,37.93,53.23,37.24,53.23z"/>
		</g>
		<g id="X_9_">
			<path id="Path_19_" class="st1" d="M156.61,175.03c-0.69,0-1.38-0.26-1.91-0.79c-1.06-1.06-1.06-2.77,0-3.82l9.57-9.56
				c1.06-1.06,2.77-1.06,3.82,0c1.06,1.06,1.06,2.77,0,3.83l-9.56,9.56C158,174.77,157.31,175.03,156.61,175.03z"/>
			<path id="Path_18_" class="st1" d="M166.18,175.03c-0.69,0-1.39-0.26-1.91-0.79l-9.56-9.56c-1.06-1.06-1.06-2.77,0-3.83
				c1.06-1.06,2.77-1.06,3.82,0l9.56,9.56c1.06,1.06,1.06,2.77,0,3.82C167.56,174.77,166.87,175.03,166.18,175.03z"/>
		</g>
	</g>
	<path id="Wave_6_" class="st1" d="M144.91,155.78l-0.09-0.03c-5.37-2.05-13.49-5.14-20.71-5.14c-3.97,0-7.57,1.38-11.06,2.71
		c-2.99,1.14-5.82,2.22-8.42,2.22c-2.6,0-5.43-1.08-8.42-2.22c-3.49-1.33-7.09-2.71-11.06-2.71c-6.19,0-10.19,1.42-16.8,3.77
		c-1.18,0.42-2.47,0.88-3.89,1.37c-1.93,0.67-2.95,2.78-2.28,4.71c0.53,1.53,1.96,2.49,3.49,2.49c0.4,0,0.81-0.07,1.21-0.2
		c1.44-0.5,2.74-0.96,3.94-1.39c6.46-2.29,9.41-3.34,14.33-3.34c2.6,0,5.43,1.08,8.42,2.22c3.49,1.33,7.09,2.71,11.06,2.71
		s7.57-1.38,11.06-2.71c2.99-1.14,5.82-2.22,8.42-2.22c5.85,0,13.21,2.8,18.08,4.66l0.09,0.03c1.91,0.73,4.05-0.23,4.77-2.14
		C147.78,158.64,146.82,156.51,144.91,155.78L144.91,155.78z"/>
	<path id="Wave_x5F_Fill" class="st2" d="M54,67.51c0,0-40.29,48.38-19.29,68.01c0,0,4.34,6.11,24,0c0,0,31.29-5.78,45.92,4.97
		l23.57-8.91c0,0-38.34-18.91-28.2-50.38C100,81.19,75.86,56.59,54,67.51z"/>
	<path id="Wave_7_" class="st10" d="M46.55,140.49c-42.94-2.61,1.13-68.81,1.13-68.81"/>
	<path id="Crashing_x5F_Wave" class="st1" d="M165.34,136.8l-1.18-0.44c-9.08-3.37-19.38-7.19-29.82-7.19
		c-0.47,0-1.53,0.01-1.6-0.01c-18.07-3.82-31.18-20-31.18-38.47c0-0.96,0.04-1.92,0.11-2.87c0.24,0.39,0.47,0.78,0.7,1.18
		c3.23,5.73,8.59,9.41,15.1,10.35c1.08,0.16,2.15,0.24,3.2,0.24c2.65,0,5.2-0.5,7.61-1.49c3.27-1.34,5.67-3.94,6.74-7.31
		s0.62-6.88-1.28-9.86c-5.14-8.08-12.26-14.83-20.6-19.52c-8.61-4.84-18.41-7.39-28.34-7.39c-8.16,0-16.04,1.66-23.44,4.94
		c-7.14,3.16-13.49,7.67-18.85,13.4c-1.32,1.41-1.33,3.59-0.04,5.02c1.3,1.43,3.47,1.62,5,0.44c6.53-5.04,14.35-7.7,22.61-7.7
		c9.52,0,18.54,3.68,25.31,10c-0.8,3.46-1.21,7.01-1.21,10.57c0,10.68,3.7,21.12,10.42,29.42c4.19,5.17,9.45,9.37,15.35,12.33
		c-0.59,0.22-1.18,0.44-1.77,0.67c-4.69,1.78-9.12,3.46-13.55,3.46s-8.86-1.68-13.55-3.46c-5.11-1.94-10.39-3.94-16.17-3.94
		c-10.76,0-20.88,3.81-30.67,7.5l-0.35,0.13c-1.91,0.72-2.88,2.85-2.16,4.77s2.85,2.88,4.77,2.16l0.35-0.13
		c9.59-3.61,18.65-7.03,28.06-7.03c4.43,0,8.86,1.68,13.55,3.46c5.11,1.94,10.39,3.94,16.17,3.94c5.78,0,11.06-2,16.17-3.94
		c4.69-1.78,9.12-3.46,13.55-3.46c9.12,0,18.33,3.42,27.25,6.73l1.18,0.44c0.42,0.16,0.86,0.23,1.28,0.23c1.5,0,2.92-0.92,3.47-2.42
		C168.24,139.63,167.26,137.51,165.34,136.8L165.34,136.8z M84.8,61.42c17.39,0,33.36,8.78,42.7,23.48
		c0.73,1.15,0.89,2.35,0.47,3.65c-0.41,1.3-1.23,2.19-2.5,2.71c-2.13,0.87-4.47,1.14-6.94,0.78c-4.25-0.62-7.61-2.92-9.72-6.66
		c-7.41-13.15-20.99-21.61-35.92-22.56C76.74,61.89,80.73,61.42,84.8,61.42z"/>
</g>
</svg>
