<?xml version="1.0" encoding="utf-8"?>
<!-- Generator: Adobe Illustrator 23.0.1, SVG Export Plug-In . SVG Version: 6.00 Build 0)  -->
<svg version="1.1" xmlns="http://www.w3.org/2000/svg" xmlns:xlink="http://www.w3.org/1999/xlink" x="0px" y="0px"
	 viewBox="0 0 200 200" style="enable-background:new 0 0 200 200;" xml:space="preserve">
<style type="text/css">
	.st0{fill:#ECEADC;}
	.st1{fill:#4D251E;}
	.st2{fill:#C1DBDC;}
	.st3{fill:#EFEFD2;}
	.st4{fill:#9EC1E3;}
	.st5{fill:#EBE849;}
	.st6{fill:#F68C2E;}
	.st7{fill:#FFFFFF;}
	.st8{fill:#AABB5B;}
	.st9{fill:#FEE7DC;}
	.st10{fill:none;stroke:#4D251E;stroke-width:7;stroke-miterlimit:10;}
</style>
<g id="Whale_1_">
	<g id="Background_1_">
		<g id="X_1_">
		</g>
		<g id="X">
		</g>
	</g>
	<g id="Body">
	</g>
	<g id="Fin">
	</g>
</g>
<g id="Boat">
	<g id="Background">
		<g id="Layer_9">
		</g>
		<g id="Layer_8">
		</g>
	</g>
	<g id="Seat">
	</g>
</g>
<g id="Dolphin">
	<g id="Background_2_">
		<path id="Circle_x5F_Background_2_" class="st0" d="M134.9,85.33c0,27.24-22.08,49.31-49.31,49.31s-49.31-22.08-49.31-49.31
			s22.08-49.31,49.31-49.31S134.9,58.09,134.9,85.33z"/>
		<path id="O_5_" class="st1" d="M150.9,180.38c-4.64,0-8.42-3.77-8.42-8.42c0-4.64,3.78-8.42,8.42-8.42s8.42,3.78,8.42,8.42
			C159.31,176.6,155.54,180.38,150.9,180.38z M150.9,168.88c-1.7,0-3.09,1.38-3.09,3.08c0,1.7,1.38,3.09,3.09,3.09
			c1.7,0,3.09-1.38,3.09-3.09C153.98,170.26,152.6,168.88,150.9,168.88z"/>
		<path id="O_4_" class="st1" d="M54.93,89.75c-4.64,0-8.42-3.77-8.42-8.42c0-4.64,3.78-8.42,8.42-8.42s8.42,3.77,8.42,8.42
			C63.35,85.97,59.57,89.75,54.93,89.75z M54.93,78.24c-1.7,0-3.09,1.38-3.09,3.09c0,1.7,1.38,3.08,3.09,3.08
			c1.7,0,3.09-1.38,3.09-3.08C58.02,79.63,56.63,78.24,54.93,78.24z"/>
		<path id="Circle_6_" class="st1" d="M128.36,44.01c0,2.28-1.85,4.12-4.12,4.12c-2.28,0-4.12-1.85-4.12-4.12s1.85-4.12,4.12-4.12
			C126.52,39.89,128.36,41.73,128.36,44.01z"/>
		<path id="Circle_5_" class="st1" d="M165.68,139.97c0,2.28-1.85,4.12-4.12,4.12s-4.12-1.85-4.12-4.12s1.85-4.12,4.12-4.12
			S165.68,137.7,165.68,139.97z"/>
		<path id="Circle_4_" class="st1" d="M35.07,97.32c0,2.28-1.85,4.12-4.12,4.12c-2.28,0-4.12-1.85-4.12-4.12
			c0-2.28,1.85-4.12,4.12-4.12C33.22,93.2,35.07,95.05,35.07,97.32z"/>
		<g id="X_3_">
			<path class="st1" d="M39.56,55.39c-0.68,0-1.37-0.26-1.89-0.78c-1.04-1.04-1.04-2.73,0-3.77l9.42-9.42
				c1.04-1.04,2.73-1.04,3.77,0c1.04,1.04,1.04,2.73,0,3.77l-9.42,9.42C40.92,55.13,40.24,55.39,39.56,55.39z"/>
			<path class="st1" d="M48.98,55.39c-0.68,0-1.37-0.26-1.89-0.78l-9.42-9.42c-1.04-1.04-1.04-2.73,0-3.77
				c1.04-1.04,2.73-1.04,3.77,0l9.42,9.42c1.04,1.04,1.04,2.73,0,3.77C50.35,55.13,49.66,55.39,48.98,55.39z"/>
		</g>
		<g id="X_2_">
			<path class="st1" d="M100.87,148.68c-0.68,0-1.36-0.26-1.88-0.78c-1.04-1.04-1.04-2.73,0-3.77l9.42-9.42
				c1.04-1.04,2.73-1.04,3.77,0c1.04,1.04,1.04,2.73,0,3.77l-9.42,9.42C102.23,148.42,101.55,148.68,100.87,148.68z"/>
			<path class="st1" d="M110.29,148.68c-0.68,0-1.36-0.26-1.89-0.78l-9.42-9.42c-1.04-1.04-1.04-2.73,0-3.77
				c1.04-1.04,2.73-1.04,3.77,0l9.42,9.42c1.04,1.04,1.04,2.73,0,3.77C111.66,148.42,110.97,148.68,110.29,148.68z"/>
		</g>
	</g>
	<g id="Fin_1_">
		<path id="Left_x5F_FinFill" class="st7" d="M89.91,76.64L68.76,61.99c0,0,29.14-19.42,48.56,4.86L89.91,76.64z"/>
		<path id="Left_x5F_FinOutline" class="st1" d="M89.91,79.3c-0.53,0-1.07-0.16-1.52-0.47L67.25,64.18
			c-0.73-0.5-1.16-1.33-1.15-2.21c0.01-0.88,0.45-1.71,1.19-2.19c0.31-0.21,31.41-20.48,52.12,5.41c0.54,0.68,0.72,1.56,0.48,2.4
			c-0.24,0.83-0.86,1.49-1.67,1.78L90.8,79.15C90.51,79.25,90.21,79.3,89.91,79.3z M73.78,62.22L90.3,73.67l22.41-8
			c-7.04-7.11-15.92-9.7-26.46-7.73C81.1,58.9,76.67,60.77,73.78,62.22z"/>
		<path id="Right_x5F_FinFill" class="st7" d="M123.1,92.16c1.01-2.74,3.56-4.8,6.65-5.58c4.54-1.13,9.48,1.44,11.24,5.77
			c0.03,0.06,0.05,0.13,0.08,0.19c1.45,3.78-1.24,7.11-3.54,10.45c-5.29,7.66-15.51,14.55-29.28,7.66
			C108.25,110.65,119.17,102.9,123.1,92.16z"/>
		<path id="Right_x5F_FinOutline" class="st1" d="M119.2,116.12c-3.75,0-7.82-0.92-12.14-3.08c-0.84-0.42-1.39-1.24-1.46-2.18
			c-0.07-0.93,0.35-1.83,1.11-2.38c0.1-0.07,10.3-7.43,13.9-17.24c1.29-3.53,4.47-6.24,8.51-7.25c5.78-1.44,12.09,1.79,14.36,7.36
			c0.01,0.02,0.09,0.23,0.1,0.25c1.84,4.79-1.01,8.85-3.29,12.12l-0.55,0.79C135.37,110.81,128.2,116.12,119.2,116.12z
			 M113.4,109.88c11.87,3.72,19.18-4.42,21.94-8.4l0.57-0.82c2.18-3.11,3.45-5.15,2.68-7.16c-1.33-3.25-4.98-5.14-8.18-4.33
			c-2.28,0.57-4.12,2.07-4.79,3.91C122.88,100.51,117.17,106.52,113.4,109.88z M123.1,92.16h0.03H123.1z"/>
	</g>
	<g id="Body_1_">
		<path id="Body_x5F_Fill" class="st2" d="M51.77,137.26c0,0,23.4-98.28,106.95-78.91c4.73,1.1,9.3,2.92,13.2,5.82
			c7.26,5.41,15.22,16.03,6.12,34.24l6.25,9.23c2.09,3.08,0.98,7.29-2.34,8.96c-2.03,1.01-4.46,0.85-6.3-0.47
			c-12.96-9.28-67.45-41.93-114.15,25.99c0,0,24.28,14.57,4.86,33.99l-9-12c-3.22-4.3-9.06-5.68-13.86-3.27l-11.13,5.56
			C32.34,166.4,17.77,142.12,51.77,137.26z"/>
		<path id="Body_x5F_Outline_1_" class="st1" d="M66.33,178.78c-0.06,0-0.13,0-0.19-0.01c-0.77-0.05-1.48-0.44-1.94-1.06l-9-12
			c-2.45-3.27-6.88-4.32-10.54-2.49l-11.13,5.56c-1.24,0.62-2.76,0.18-3.48-1.01c-0.26-0.43-6.33-10.75-1.83-20.21
			c3.11-6.52,10.31-10.78,21.42-12.67c3.76-13.32,30.83-97.42,109.67-79.14c5.55,1.29,10.32,3.4,14.19,6.28
			c6.83,5.09,16.71,16.47,7.59,36.15l5.39,7.96c1.42,2.1,1.87,4.72,1.23,7.18c-0.64,2.46-2.32,4.52-4.59,5.66
			c-2.94,1.47-6.4,1.2-9.04-0.69c-8.25-5.91-30.26-19.17-56.34-14.58c-19.45,3.41-37.12,16.1-52.55,37.74
			c3.6,2.74,10.17,8.8,11.2,17.19c0.81,6.6-1.94,13.11-8.18,19.35C67.72,178.5,67.04,178.78,66.33,178.78z M48.44,156.99
			c4.22,0,8.35,1.94,11.03,5.52l7.07,9.43c3.54-4.26,5.07-8.5,4.56-12.65c-1.09-8.85-10.9-14.83-11-14.89
			c-0.63-0.38-1.08-1-1.23-1.72c-0.16-0.72-0.01-1.47,0.41-2.07c16.63-24.19,35.99-38.37,57.54-42.15
			c28.08-4.93,51.57,9.2,60.36,15.5c1.03,0.74,2.39,0.83,3.56,0.26c0.91-0.46,1.55-1.25,1.81-2.24c0.26-0.99,0.09-2-0.49-2.85
			l-6.25-9.22c-0.54-0.8-0.61-1.83-0.18-2.69c6.51-13.02,4.72-23.42-5.33-30.91c-3.27-2.44-7.37-4.24-12.2-5.36
			C78.08,42.38,54.59,136.92,54.36,137.88c-0.25,1.06-1.13,1.87-2.21,2.02c-10.21,1.46-16.63,4.8-19.09,9.93
			c-2.25,4.69-0.71,10.04,0.51,12.98l8.71-4.36C44.24,157.47,46.35,156.99,48.44,156.99z M51.77,137.26h0.03H51.77z"/>
		<path id="Eye_1_" class="st1" d="M163.46,88.11c-2.35,0-4.26-1.91-4.26-4.26c0-2.35,1.91-4.26,4.26-4.26s4.26,1.91,4.26,4.26
			C167.72,86.19,165.81,88.11,163.46,88.11z M163.46,82.77c-0.59,0-1.07,0.48-1.07,1.07c0,0.59,0.48,1.07,1.07,1.07
			c0.59,0,1.07-0.48,1.07-1.07C164.53,83.25,164.05,82.77,163.46,82.77z"/>
	</g>
</g>
<g id="Bubbles_1_">
	<g id="Background_3_">
		<g id="X_4_">
		</g>
	</g>
	<g id="Bubbles">
	</g>
	<g id="Fish">
	</g>
</g>
<g id="Seagull">
	<g id="Background_4_">
		<g id="X_6_">
		</g>
		<g id="X_5_">
		</g>
	</g>
	<g id="Beak">
	</g>
	<g id="Body_2_">
	</g>
	<g id="Wing">
	</g>
</g>
<g id="Mermaid">
	<g id="Background_5_">
		<g id="X_7_">
		</g>
	</g>
	<g id="Tail">
	</g>
	<g id="Body_3_">
	</g>
	<g id="Hair">
	</g>
</g>
<g id="Calm_Waves">
	<g id="Background_6_">
		<g id="X_8_">
		</g>
	</g>
	<g id="Waves">
	</g>
</g>
<g id="Crashing_Waves">
	<g id="Background_7_">
		<g id="X_10_">
		</g>
		<g id="X_9_">
		</g>
	</g>
</g>
</svg>
