<?xml version="1.0" encoding="utf-8"?>
<!-- Generator: Adobe Illustrator 23.0.1, SVG Export Plug-In . SVG Version: 6.00 Build 0)  -->
<svg version="1.1" id="Mermaid" xmlns="http://www.w3.org/2000/svg" xmlns:xlink="http://www.w3.org/1999/xlink" x="0px" y="0px"
	 viewBox="0 0 200 200" style="enable-background:new 0 0 200 200;" xml:space="preserve">
<style type="text/css">
	.st0{fill:#ECEADC;}
	.st1{fill:#4D251E;}
	.st2{fill:#AABB5B;}
	.st3{fill:#9EC1E3;}
	.st4{fill:#FEE7DC;}
</style>
<g id="Background">
	<path id="Circle_x5F_Background_5_" class="st0" d="M120.93,75.62c0,25.72-20.85,46.57-46.57,46.57s-46.57-20.85-46.57-46.57
		s20.85-46.57,46.57-46.57S120.93,49.9,120.93,75.62z"/>
	<path id="O_11_" class="st1" d="M27.78,98.01c-4.71,0-8.54-3.83-8.54-8.54c0-4.71,3.83-8.54,8.54-8.54c4.71,0,8.54,3.83,8.54,8.54
		C36.32,94.18,32.49,98.01,27.78,98.01z M27.78,86.34c-1.73,0-3.13,1.4-3.13,3.13s1.41,3.13,3.13,3.13c1.73,0,3.13-1.4,3.13-3.13
		S29.5,86.34,27.78,86.34z"/>
	<path id="O_10_" class="st1" d="M159.4,38.63c-4.71,0-8.54-3.83-8.54-8.54s3.83-8.54,8.54-8.54c4.71,0,8.54,3.83,8.54,8.54
		S164.11,38.63,159.4,38.63z M159.4,26.96c-1.73,0-3.13,1.4-3.13,3.13s1.41,3.13,3.13,3.13c1.73,0,3.13-1.4,3.13-3.13
		S161.13,26.96,159.4,26.96z"/>
	<path id="Circle_13_" class="st1" d="M181.75,155.77c0,2.31-1.87,4.18-4.18,4.18s-4.18-1.87-4.18-4.18s1.87-4.18,4.18-4.18
		S181.75,153.46,181.75,155.77z"/>
	<path id="Circle_12_" class="st1" d="M60.79,43.38c0,2.31-1.87,4.18-4.19,4.18c-2.31,0-4.18-1.87-4.18-4.18
		c0-2.31,1.87-4.18,4.18-4.18C58.91,39.2,60.79,41.07,60.79,43.38z"/>
	<path id="Circle_14_" class="st1" d="M29.44,170.02c0,2.31-1.87,4.18-4.18,4.18s-4.18-1.87-4.18-4.18c0-2.31,1.87-4.18,4.18-4.18
		S29.44,167.71,29.44,170.02z"/>
	<g id="X">
		<path id="Path_13_" class="st1" d="M24.77,35.99c-0.69,0-1.38-0.26-1.91-0.79c-1.06-1.06-1.06-2.77,0-3.82l9.56-9.56
			c1.06-1.06,2.77-1.06,3.82,0c1.06,1.06,1.06,2.77,0,3.82l-9.56,9.56C26.16,35.73,25.46,35.99,24.77,35.99z"/>
		<path id="Path_12_" class="st1" d="M34.33,35.99c-0.69,0-1.38-0.26-1.91-0.79l-9.56-9.56c-1.06-1.06-1.06-2.77,0-3.82
			c1.06-1.06,2.77-1.06,3.82,0l9.56,9.56c1.06,1.06,1.06,2.77,0,3.82C35.72,35.73,35.03,35.99,34.33,35.99z"/>
	</g>
</g>
<path id="BackHair_x5F_Fill" class="st2" d="M83.16,81.91h67.97v83.08H83.16V81.91z"/>
<g id="Tail">
	<path id="BodyTail_x5F_Fill" class="st3" d="M68.06,89.47c-23.64,0-42.8,19.16-42.8,42.8c0,23.64,19.16,42.8,42.8,42.8
		s42.8-19.16,42.8-42.8C110.86,108.63,91.7,89.47,68.06,89.47z M68.06,145.88c-7.52,0-13.62-6.1-13.62-13.62
		c0-7.52,6.1-13.62,13.62-13.62c7.52,0,13.62,6.1,13.62,13.62C81.68,139.79,75.58,145.88,68.06,145.88z"/>
	<path id="BodyTail_x5F_Outline" class="st1" d="M68.06,177.58c-24.99,0-45.32-20.33-45.32-45.32c0-24.99,20.33-45.32,45.32-45.32
		s45.32,20.33,45.32,45.32C113.37,157.25,93.05,177.58,68.06,177.58z M68.06,91.98c-22.21,0-40.28,18.07-40.28,40.28
		s18.07,40.28,40.28,40.28s40.28-18.07,40.28-40.28S90.27,91.98,68.06,91.98z M68.06,148.4c-8.9,0-16.14-7.24-16.14-16.14
		c0-8.9,7.24-16.14,16.14-16.14c8.9,0,16.14,7.24,16.14,16.14C84.2,141.16,76.96,148.4,68.06,148.4z M68.06,121.16
		c-6.12,0-11.1,4.98-11.1,11.1c0,6.12,4.98,11.1,11.1,11.1s11.1-4.98,11.1-11.1C79.16,126.14,74.18,121.16,68.06,121.16z"/>
	<path id="Tail_x5F_Fill_1_" class="st3" d="M91.62,102.82c-2.75-7.35-2.98-8.2-9.99-23.2c-0.55-6.51,3.41-8.98,8.8-15.2
		c4.5-5.2,7.84-11.44,8.86-18.24c0.48-3.23,0.54-6.79-0.24-10.45c0,0-23.1,1.58-34.33,27.41c0,0-28.56-24.04-42.52-11.01
		c0,0,5.47,25.62,36.33,29.07c0,0,11.94,9.55,15.19,23.6L91.62,102.82z"/>
	<path id="Tail_x5F_Outline" class="st1" d="M73.72,107.32c-1.16,0-2.18-0.8-2.45-1.95c-2.64-11.42-11.53-19.78-13.79-21.76
		C25.86,79.65,19.8,52.92,19.74,52.65c-0.18-0.87,0.1-1.77,0.75-2.37c12.95-12.09,35.66,3.13,43.3,8.91
		c12.09-24.13,34.12-25.91,35.09-25.98c1.25-0.06,2.37,0.76,2.63,1.99c0.76,3.59,0.85,7.41,0.27,11.35
		c-1.02,6.81-4.28,13.56-9.44,19.51c-1.1,1.27-2.14,2.39-3.1,3.42c-3.73,4-5.31,5.85-5.12,9.49c6.48,13.88,7.06,15.44,9.44,21.81
		l0.43,1.14c0.27,0.73,0.19,1.54-0.21,2.2c-0.41,0.66-1.1,1.1-1.87,1.19L74,107.31C73.91,107.32,73.82,107.32,73.72,107.32z
		 M25.06,53.03c1.63,5.24,8.93,22.88,33.76,25.67c0.47,0.05,0.92,0.24,1.29,0.54c0.49,0.39,11.47,9.31,15.49,22.83l12.53-1.39
		c-1.83-4.87-2.91-7.41-8.78-19.99c-0.13-0.27-0.2-0.56-0.23-0.85c-0.53-6.32,2.54-9.61,6.43-13.78c0.92-0.99,1.92-2.06,2.98-3.28
		c4.53-5.23,7.39-11.1,8.27-16.97c0.37-2.5,0.43-4.92,0.16-7.24c-5.83,1.12-21.38,5.89-29.93,25.57c-0.32,0.73-0.96,1.27-1.73,1.45
		c-0.78,0.18-1.59-0.01-2.2-0.52C62.85,64.85,37.68,43.94,25.06,53.03z"/>
</g>
<g id="Body">
	<path id="Body_x5F_Fill_2_" class="st4" d="M147.87,152.4h-19.39v-10.07c0-5.56-4.51-10.07-10.07-10.07s-10.07,4.51-10.07,10.07
		v10.07H89.21c-12.46,0-22.56,10.1-22.56,22.56v0.1h103.78v-0.1C170.43,162.5,160.33,152.4,147.87,152.4z"/>
	<path id="Body_x5F_Outline_3_" class="st1" d="M170.43,177.58H66.65c-1.39,0-2.52-1.13-2.52-2.52c0-13.93,11.25-25.18,25.08-25.18
		h16.61v-7.55c0-6.94,5.65-12.59,12.59-12.59c6.94,0,12.59,5.65,12.59,12.59v7.55h16.87c13.83,0,25.08,11.25,25.08,25.08
		C172.95,176.36,171.82,177.58,170.43,177.58z M69.31,172.54h98.45c-1.23-9.95-9.68-17.62-19.89-17.62h-19.39
		c-1.39,0-2.52-1.13-2.52-2.52v-10.07c0-4.16-3.39-7.55-7.55-7.55s-7.55,3.39-7.55,7.55v10.07c0,1.39-1.13,2.52-2.52,2.52H89.21
		C78.98,154.92,70.51,162.63,69.31,172.54z"/>
	<path id="Face_x5F_Fill" class="st4" d="M119.67,144.85c-17.38,0-31.47-14.09-31.47-31.47V81.91h62.94v31.47
		C151.14,130.76,137.05,144.85,119.67,144.85z"/>
	<path id="Face_x5F_Outline" class="st1" d="M119.67,147.37c-18.74,0-33.99-15.25-33.99-33.99V81.91c0-1.39,1.13-2.52,2.52-2.52
		h62.94c1.39,0,2.52,1.13,2.52,2.52v31.47C153.66,132.12,138.41,147.37,119.67,147.37z M90.72,84.43v28.95
		c0,15.96,12.99,28.95,28.95,28.95s28.95-12.99,28.95-28.95V84.43H90.72z"/>
	<path id="Mouth" class="st1" d="M118.48,127.9c-2.07,0-4.12-0.8-6.05-2.38c-1.07-0.88-1.23-2.47-0.34-3.54
		c0.88-1.07,2.47-1.23,3.54-0.34c2.01,1.65,3.71,1.64,5.87-0.04c1.1-0.85,2.68-0.66,3.54,0.44c0.85,1.09,0.66,2.68-0.43,3.53
		C122.6,127.12,120.53,127.9,118.48,127.9z"/>
	<path id="Eye_4_" class="st1" d="M98.68,108.48c-0.95,0-1.86-0.54-2.29-1.46c-0.58-1.26-0.03-2.76,1.23-3.34
		c4.29-1.98,7.29-0.98,9.04,0.2c1.15,0.77,1.46,2.34,0.69,3.49s-2.34,1.46-3.49,0.69c-0.65-0.43-1.78-0.88-4.13,0.2
		C99.39,108.4,99.03,108.48,98.68,108.48z"/>
</g>
<g id="Hair">
	<path id="SideHair_x5F_Fill_1_" class="st2" d="M98.24,62.66c-16.67,0-30.18,14.14-30.18,31.58v40.61
		c0,17.44,13.51,31.58,30.18,31.58C98.24,166.44,98.24,63.05,98.24,62.66z"/>
	<path id="SideHair_x5F_Outline" class="st1" d="M98.24,168.96c-18.03,0-32.7-15.3-32.7-34.1V94.25c0-18.8,14.67-34.1,32.7-34.1
		c1.39,0,2.52,1.13,2.52,2.52v103.78C100.75,167.83,99.63,168.96,98.24,168.96z M95.72,65.3c-14.08,1.34-25.14,13.81-25.14,28.95
		v40.61c0,15.13,11.06,27.61,25.14,28.95V65.3z"/>
	<path id="FrontHair_x5F_Fill" class="st2" d="M89.2,77.88v2.67c0,0,38.4,28.61,62.94,17.67v51.88c0,0,13.98,1.72,20.41-14.39
		c1.6-4.01,2.25-8.33,2.25-12.65V73.79c0-15.65-15.19-27.5-30.15-22.68c-3.23,1.04-6.34,2.81-9.12,5.6c0,0-0.07-0.06-0.22-0.19
		C117.16,41.11,89.2,54.13,89.2,77.88z"/>
	<path id="FrontHair_x5F__Outline" class="st1" d="M152.11,154.9c-0.79,0-1.26-0.05-1.28-0.06c-1.26-0.16-2.21-1.23-2.21-2.5v-48.27
		c-25.43,7.61-60.38-18.11-61.93-19.26c-0.64-0.47-1.01-1.22-1.01-2.02v-2.67c0-12,6.8-22.6,17.73-27.66
		c10.33-4.78,22.03-3.55,31,3.17c2.49-2.1,5.33-3.67,8.45-4.68c7.68-2.47,15.89-1.11,22.53,3.73c6.83,4.98,10.91,12.96,10.91,21.35
		v49.27c0,4.97-0.82,9.54-2.43,13.58C168.01,153.64,156.05,154.9,152.11,154.9z M151.14,97.95c0.48,0,0.96,0.14,1.37,0.41
		c0.72,0.46,1.15,1.26,1.15,2.11v49.37c3.76-0.32,11.37-2.32,15.55-12.81c1.37-3.45,2.07-7.39,2.07-11.72V76.04
		c0-6.79-3.3-13.25-8.84-17.28c-5.33-3.88-11.89-4.98-18.03-3c-3.08,0.99-5.8,2.67-8.1,4.98c-0.93,0.94-2.43,0.99-3.43,0.13
		l-0.19-0.17c-7.63-6.48-18.04-7.88-27.16-3.65c-9.14,4.23-14.81,13.08-14.81,23.09v1.37c6.13,4.3,38.62,25.92,59.4,16.66
		C150.44,98.02,150.79,97.95,151.14,97.95z"/>
</g>
</svg>
