<?xml version="1.0" encoding="utf-8"?>
<!-- Generator: Adobe Illustrator 23.0.1, SVG Export Plug-In . SVG Version: 6.00 Build 0)  -->
<svg version="1.1" xmlns="http://www.w3.org/2000/svg" xmlns:xlink="http://www.w3.org/1999/xlink" x="0px" y="0px"
	 viewBox="0 0 200 200" style="enable-background:new 0 0 200 200;" xml:space="preserve">
<style type="text/css">
	.st0{fill:#ECEADC;}
	.st1{fill:#4D251E;}
	.st2{fill:#C1DBDC;}
	.st3{fill:#EFEFD2;}
	.st4{fill:#9EC1E3;}
	.st5{fill:#EBE849;}
	.st6{fill:#F68C2E;}
	.st7{fill:#FFFFFF;}
	.st8{fill:#AABB5B;}
	.st9{fill:#FEE7DC;}
	.st10{fill:none;stroke:#4D251E;stroke-width:7;stroke-miterlimit:10;}
</style>
<g id="Whale_1_">
	<g id="Background_1_">
		<g id="X_1_">
		</g>
		<g id="X">
		</g>
	</g>
	<g id="Body">
	</g>
	<g id="Fin">
	</g>
</g>
<g id="Boat">
	<g id="Background">
		<g id="Layer_9">
		</g>
		<g id="Layer_8">
		</g>
	</g>
	<g id="Seat">
	</g>
</g>
<g id="Dolphin">
	<g id="Background_2_">
		<g id="X_3_">
		</g>
		<g id="X_2_">
		</g>
	</g>
	<g id="Fin_1_">
	</g>
	<g id="Body_1_">
	</g>
</g>
<g id="Bubbles_1_">
	<g id="Background_3_">
		<g id="X_4_">
		</g>
	</g>
	<g id="Bubbles">
	</g>
	<g id="Fish">
	</g>
</g>
<g id="Seagull">
	<g id="Background_4_">
		<path id="Circle_x5F_Background_4_" class="st0" d="M131.21,117.27c0,27.64-22.41,50.05-50.05,50.05
			c-27.64,0-50.05-22.41-50.05-50.05s22.41-50.05,50.05-50.05C108.8,67.23,131.21,89.63,131.21,117.27z"/>
		<path id="O_9_" class="st1" d="M44.64,159.63c-4.71,0-8.54-3.83-8.54-8.54c0-4.71,3.83-8.54,8.54-8.54c4.71,0,8.54,3.83,8.54,8.54
			C53.19,155.8,49.35,159.63,44.64,159.63z M44.64,147.96c-1.73,0-3.13,1.4-3.13,3.13s1.41,3.13,3.13,3.13
			c1.73,0,3.13-1.4,3.13-3.13S46.37,147.96,44.64,147.96z"/>
		<path id="O_8_" class="st1" d="M177.2,43.31c-4.71,0-8.54-3.83-8.54-8.54s3.83-8.54,8.54-8.54c4.71,0,8.54,3.83,8.54,8.54
			S181.91,43.31,177.2,43.31z M177.2,31.64c-1.73,0-3.13,1.4-3.13,3.13s1.41,3.13,3.13,3.13c1.73,0,3.13-1.4,3.13-3.13
			S178.92,31.64,177.2,31.64z"/>
		<path id="Circle_10_" class="st1" d="M67.76,161.91c0,2.31-1.87,4.18-4.18,4.18s-4.18-1.87-4.18-4.18s1.87-4.18,4.18-4.18
			S67.76,159.6,67.76,161.91z"/>
		<path id="Circle_11_" class="st1" d="M78.59,59.11c0,2.31-1.87,4.18-4.19,4.18c-2.31,0-4.18-1.87-4.18-4.18s1.87-4.18,4.18-4.18
			C76.71,54.93,78.59,56.8,78.59,59.11z"/>
		<g id="X_6_">
			<path id="Path_9_" class="st1" d="M42.57,51.72c-0.69,0-1.38-0.26-1.91-0.79c-1.06-1.06-1.06-2.77,0-3.82l9.56-9.56
				c1.06-1.06,2.77-1.06,3.82,0c1.06,1.06,1.06,2.77,0,3.82l-9.56,9.56C43.95,51.46,43.26,51.72,42.57,51.72z"/>
			<path id="Path_8_" class="st1" d="M52.13,51.72c-0.69,0-1.38-0.26-1.91-0.79l-9.56-9.56c-1.06-1.06-1.06-2.77,0-3.82
				c1.06-1.06,2.77-1.06,3.82,0l9.56,9.56c1.06,1.06,1.06,2.77,0,3.82C53.51,51.46,52.82,51.72,52.13,51.72z"/>
		</g>
		<g id="X_5_">
			<path id="Path_7_" class="st1" d="M153.48,170.75c-0.69,0-1.38-0.26-1.91-0.79c-1.06-1.06-1.06-2.77,0-3.82l9.57-9.56
				c1.06-1.06,2.77-1.06,3.82,0c1.06,1.06,1.06,2.77,0,3.83l-9.56,9.56C154.86,170.48,154.17,170.75,153.48,170.75z"/>
			<path id="Path_6_" class="st1" d="M163.04,170.75c-0.69,0-1.39-0.26-1.91-0.79l-9.56-9.56c-1.06-1.06-1.06-2.77,0-3.83
				c1.06-1.06,2.77-1.06,3.82,0l9.56,9.56c1.06,1.06,1.06,2.77,0,3.82C164.43,170.48,163.73,170.75,163.04,170.75z"/>
		</g>
	</g>
	<g id="Beak">
		<path id="Fill_1_" class="st6" d="M169.94,75.34h-35.47V64.8h24.93C165.22,64.8,169.94,69.52,169.94,75.34z"/>
		<path id="Outline" class="st1" d="M169.94,78.05h-35.47c-1.5,0-2.71-1.21-2.71-2.71V64.8c0-1.5,1.21-2.71,2.71-2.71h24.93
			c7.3,0,13.25,5.94,13.25,13.25C172.64,76.84,171.43,78.05,169.94,78.05z M137.17,72.64h29.58c-1.1-2.99-3.98-5.13-7.36-5.13
			h-22.23V72.64z"/>
	</g>
	<g id="Body_2_">
		<path id="Body_x5F_Fill_1_" class="st7" d="M126.65,45.59c8.96,0,16.23,7.27,16.23,16.23v52.48c0,17.33-14.05,31.38-31.37,31.38
			c-24.72,0-48.88-7.29-69.47-20.96l-12.77-8.48h81.15V61.82C110.42,52.85,117.69,45.59,126.65,45.59z"/>
		<path id="Body_x5F_Outline_2_" class="st1" d="M111.51,148.38c-25.33,0-49.87-7.41-70.97-21.41l-12.77-8.48
			c-0.99-0.66-1.44-1.89-1.09-3.04c0.35-1.14,1.4-1.92,2.59-1.92h78.45V61.82c0-10.44,8.49-18.94,18.94-18.94
			c10.44,0,18.94,8.5,18.94,18.94v52.48C145.59,133.1,130.3,148.38,111.51,148.38z M38.23,118.94l5.3,3.52
			c20.21,13.42,43.72,20.51,67.98,20.51c15.81,0,28.67-12.86,28.67-28.67V61.82c0-7.46-6.07-13.53-13.53-13.53
			s-13.53,6.07-13.53,13.53v54.42c0,1.5-1.21,2.71-2.71,2.71H38.23z"/>
	</g>
	<g id="Wing">
		<path id="Wing_x5F_Fill" class="st2" d="M113.55,86.89c6.31,2.74,10.4,8.97,10.4,15.86c0,13.33-10.81,24.13-24.13,24.13h-2.98
			c-16.61,0-51.33-10.96-51.33-10.96l53.96-28.9C103.92,84.98,109.05,84.93,113.55,86.89z"/>
		<path id="Wing_x5F_Outline" class="st1" d="M99.81,129.59h-2.98c-16.83,0-50.71-10.63-52.15-11.08c-1.04-0.33-1.78-1.25-1.88-2.33
			c-0.1-1.08,0.46-2.12,1.42-2.64l53.96-28.9c5.31-2.43,11.24-2.49,16.44-0.23c7.3,3.17,12.03,10.37,12.03,18.34
			C126.65,117.55,114.61,129.59,99.81,129.59z M52.55,115.21c10.68,3.1,32.45,8.97,44.28,8.97h2.98c11.82,0,21.43-9.61,21.43-21.43
			c0-5.81-3.44-11.06-8.77-13.38h0c-3.79-1.65-8.13-1.61-11.88,0.11L52.55,115.21z"/>
	</g>
	<path id="Feet" class="st1" d="M113.13,175.43c-1.49,0-2.7-1.21-2.7-2.7v-27.05c0-1.5,1.21-2.7,2.7-2.7c1.5,0,2.71,1.21,2.71,2.7
		v27.05C115.83,174.23,114.62,175.43,113.13,175.43z M102.31,175.43c-1.49,0-2.71-1.21-2.71-2.7v-27.05c0-1.5,1.21-2.7,2.71-2.7
		s2.71,1.21,2.71,2.7v27.05C105.01,174.23,103.8,175.43,102.31,175.43z M126.65,175.43H91.49c-1.49,0-2.7-1.21-2.7-2.7
		c0-1.5,1.21-2.71,2.7-2.71h35.17c1.49,0,2.7,1.21,2.7,2.71C129.36,174.23,128.15,175.43,126.65,175.43z"/>
	<path id="Eye_3_" class="st1" d="M132.06,61.82c0,1.49-1.21,2.7-2.71,2.7s-2.7-1.21-2.7-2.7s1.21-2.71,2.7-2.71
		S132.06,60.32,132.06,61.82z"/>
</g>
<g id="Mermaid">
	<g id="Background_5_">
		<g id="X_7_">
		</g>
	</g>
	<g id="Tail">
	</g>
	<g id="Body_3_">
	</g>
	<g id="Hair">
	</g>
</g>
<g id="Calm_Waves">
	<g id="Background_6_">
		<g id="X_8_">
		</g>
	</g>
	<g id="Waves">
	</g>
</g>
<g id="Crashing_Waves">
	<g id="Background_7_">
		<g id="X_10_">
		</g>
		<g id="X_9_">
		</g>
	</g>
</g>
</svg>
