<?xml version="1.0" encoding="utf-8"?>
<!-- Generator: Adobe Illustrator 23.0.1, SVG Export Plug-In . SVG Version: 6.00 Build 0)  -->
<svg version="1.1" xmlns="http://www.w3.org/2000/svg" xmlns:xlink="http://www.w3.org/1999/xlink" x="0px" y="0px"
	 viewBox="0 0 200 200" style="enable-background:new 0 0 200 200;" xml:space="preserve">
<style type="text/css">
	.st0{fill:#ECEADC;}
	.st1{fill:#4D251E;}
	.st2{fill:#C1DBDC;}
	.st3{fill:#EFEFD2;}
	.st4{fill:#9EC1E3;}
	.st5{fill:#EBE849;}
	.st6{fill:#F68C2E;}
	.st7{fill:#FFFFFF;}
	.st8{fill:#AABB5B;}
	.st9{fill:#FEE7DC;}
	.st10{fill:none;stroke:#4D251E;stroke-width:7;stroke-miterlimit:10;}
</style>
<g id="Whale_1_">
	<g id="Background_1_">
		<path id="Circle_x5F_Background" class="st0" d="M121.86,112.46c0,29.79-24.15,53.93-53.93,53.93S14,142.24,14,112.46
			s24.15-53.93,53.93-53.93S121.86,82.67,121.86,112.46z"/>
		<path id="O" class="st1" d="M171.42,58.98c-5.08,0-9.21-4.13-9.21-9.2s4.13-9.2,9.21-9.2s9.2,4.13,9.2,9.2
			S176.5,58.98,171.42,58.98z M171.42,46.41c-1.86,0-3.37,1.51-3.37,3.37c0,1.86,1.51,3.37,3.37,3.37c1.86,0,3.37-1.51,3.37-3.37
			C174.8,47.92,173.28,46.41,171.42,46.41z"/>
		<path id="O_1_" class="st1" d="M28.58,158.1c-5.08,0-9.2-4.13-9.2-9.2c0-5.08,4.13-9.2,9.2-9.2s9.21,4.13,9.21,9.2
			C37.78,153.97,33.65,158.1,28.58,158.1z M28.58,145.52c-1.86,0-3.37,1.51-3.37,3.37c0,1.86,1.51,3.37,3.37,3.37
			c1.86,0,3.37-1.51,3.37-3.37C31.95,147.04,30.44,145.52,28.58,145.52z"/>
		<path id="Circle" class="st1" d="M158.44,32.29c0,2.49-2.02,4.51-4.51,4.51c-2.49,0-4.51-2.02-4.51-4.51
			c0-2.49,2.02-4.51,4.51-4.51C156.42,27.78,158.44,29.8,158.44,32.29z"/>
		<path id="Circle_1_" class="st1" d="M53.49,160.56c0,2.49-2.02,4.51-4.51,4.51c-2.49,0-4.51-2.02-4.51-4.51
			c0-2.49,2.02-4.51,4.51-4.51C51.47,156.05,53.49,158.07,53.49,160.56z"/>
		<g id="X_1_">
			<path id="Path_1_" class="st1" d="M106.61,65.14c-0.75,0-1.49-0.29-2.06-0.85L94.24,53.98c-1.14-1.14-1.14-2.98,0-4.12
				c1.14-1.14,2.98-1.14,4.12,0l10.31,10.31c1.14,1.14,1.14,2.98,0,4.12C108.1,64.85,107.36,65.14,106.61,65.14z"/>
			<path id="Path" class="st1" d="M96.31,65.14c-0.75,0-1.49-0.29-2.06-0.85c-1.14-1.14-1.14-2.98,0-4.12l10.31-10.31
				c1.14-1.14,2.98-1.14,4.12,0c1.14,1.14,1.14,2.98,0,4.12L98.37,64.28C97.8,64.85,97.05,65.14,96.31,65.14z"/>
		</g>
		<g id="X">
			<path id="Path_3_" class="st1" d="M170.75,170.09c-0.75,0-1.49-0.29-2.06-0.85l-10.31-10.31c-1.14-1.14-1.14-2.98,0-4.12
				c1.14-1.14,2.98-1.14,4.12,0l10.31,10.31c1.14,1.14,1.14,2.98,0,4.12C172.24,169.8,171.49,170.09,170.75,170.09z"/>
			<path id="Path_2_" class="st1" d="M160.44,170.09c-0.75,0-1.49-0.29-2.06-0.85c-1.14-1.14-1.14-2.98,0-4.12l10.31-10.31
				c1.14-1.14,2.98-1.14,4.12,0c1.14,1.14,1.14,2.98,0,4.12l-10.31,10.31C161.93,169.8,161.19,170.09,160.44,170.09z"/>
		</g>
	</g>
	<g id="Body">
		<path id="Fill" class="st2" d="M116,135.92c13.1,0,25.41-6.8,33.09-18.29l16.51-24.11l-87.46-0.09
			C63.66,93.47,51.9,81.75,51.9,67.27h-8.75c-2.2,7.7-2.93,15.86-2.08,24.29c3.38,33.6,29.91,60.83,63.3,64.64v-8.66
			C104.37,141.12,109.58,135.92,116,135.92z"/>
		<path id="Mouth_x5F_Fill" class="st3" d="M165.59,93.51l-16.51,24.11c-7.68,11.49-19.99,18.29-33.09,18.29
			c-6.42,0-11.63,5.21-11.63,11.63v8.66c0.59,0.07,1.17,0.19,1.77,0.24c39.5,3.49,73.27-25.13,76.94-62.93H165.59z"/>
		<path id="Tail_x5F_Fill" class="st4" d="M68.47,61.25c-6.36,6.36-19.2,3.84-19.2,3.84s-2.52-12.83,3.84-19.2s19.2-3.84,19.2-3.84
			S74.84,54.89,68.47,61.25z M27.08,61.25c6.36,6.36,19.2,3.84,19.2,3.84s2.52-12.83-3.84-19.2c-6.36-6.36-19.19-3.84-19.19-3.84
			S20.72,54.89,27.08,61.25z"/>
		<path id="Body_x5F_Outline" class="st1" d="M104.37,159.12c-0.11,0-0.22-0.01-0.33-0.02c-34.65-3.96-62.36-32.24-65.88-67.25
			c-0.88-8.73-0.14-17.27,2.18-25.38c0.36-1.25,1.5-2.11,2.8-2.11h8.75c1.61,0,2.92,1.3,2.92,2.92c0,6.22,2.43,12.07,6.83,16.45
			c4.39,4.37,10.21,6.78,16.4,6.78h0.08l87.47,0.09c1.08,0,2.07,0.6,2.58,1.56c0.5,0.96,0.44,2.11-0.17,3l-16.51,24.11
			c-8.18,12.24-21.46,19.57-35.49,19.57c-4.8,0-8.71,3.91-8.71,8.71v8.66c0,0.83-0.35,1.62-0.97,2.18
			C105.78,158.86,105.09,159.12,104.37,159.12z M45.39,70.19c-1.67,6.77-2.15,13.85-1.42,21.09c3.14,31.19,27.07,56.6,57.49,61.58
			v-5.31c0-8.02,6.52-14.54,14.54-14.54c12.09,0,23.55-6.35,30.66-17l13.41-19.58l-81.94-0.08c-0.03,0-0.07,0-0.1,0
			c-7.73,0-15.02-3.01-20.5-8.48c-4.82-4.8-7.74-10.99-8.4-17.67H45.39z M112.51,159.64c-2.19,0-4.4-0.1-6.62-0.29
			c-0.4-0.03-0.8-0.09-1.19-0.15l-0.65-0.09c-1.47-0.17-2.58-1.41-2.58-2.9v-8.66c0-8.02,6.52-14.54,14.54-14.54
			c12.09,0,23.55-6.35,30.66-17l16.53-24.14c0.54-0.79,1.44-1.27,2.41-1.27h17.49c0.82,0,1.6,0.35,2.16,0.96
			c0.55,0.61,0.82,1.42,0.74,2.24C182.34,131.31,150.05,159.64,112.51,159.64z M107.29,153.61c35.7,2.69,67.43-22.57,72.51-57.19
			h-12.66l-15.64,22.84c-8.18,12.24-21.46,19.56-35.49,19.56c-4.8,0-8.71,3.91-8.71,8.71V153.61z M55.08,68.49
			c-3.5,0-6.12-0.5-6.37-0.54c-1.16-0.23-2.07-1.14-2.3-2.3c-0.12-0.58-2.74-14.44,4.64-21.82c7.37-7.37,21.23-4.75,21.82-4.64
			c1.16,0.23,2.07,1.14,2.3,2.3c0.11,0.59,2.73,14.44-4.64,21.82C66.28,67.57,59.86,68.49,55.08,68.49z M51.85,62.51
			c4.04,0.4,10.98,0.26,14.56-3.32c3.6-3.6,3.74-10.53,3.33-14.56c-4.04-0.42-10.98-0.26-14.56,3.32
			C51.58,51.56,51.44,58.49,51.85,62.51z M68.47,61.25h0.03H68.47z M40.47,68.49c-4.78,0-11.19-0.92-15.45-5.18
			c-7.37-7.38-4.75-21.23-4.64-21.82c0.23-1.16,1.14-2.07,2.3-2.3c0.59-0.11,14.44-2.73,21.82,4.64c7.37,7.37,4.75,21.23,4.64,21.82
			c-0.23,1.16-1.14,2.07-2.3,2.3C46.59,68,43.97,68.49,40.47,68.49z M29.14,59.19c3.6,3.6,10.53,3.73,14.56,3.33
			c0.4-4.04,0.26-10.98-3.32-14.56c-3.6-3.6-10.52-3.73-14.56-3.33C25.41,48.67,25.56,55.61,29.14,59.19z"/>
		<path id="Eye" class="st1" d="M143.34,109.67c0,2-1.62,3.62-3.62,3.62c-2,0-3.62-1.62-3.62-3.62s1.62-3.62,3.62-3.62
			C141.72,106.05,143.34,107.68,143.34,109.67z"/>
	</g>
	<g id="Fin">
		<path id="Fin_x5F_Fill_1_" class="st4" d="M104.37,169.31c-4.83,0-8.74-3.92-8.74-8.75v-17.49c0-4.83,3.92-8.75,8.74-8.75
			c4.83,0,8.75,3.92,8.75,8.75v17.49C113.12,165.39,109.2,169.31,104.37,169.31z"/>
		<path id="Fin_x5F_Outline" class="st1" d="M104.37,172.22c-6.43,0-11.66-5.23-11.66-11.66v-17.49c0-6.43,5.23-11.66,11.66-11.66
			c6.43,0,11.66,5.23,11.66,11.66v17.49C116.03,166.99,110.8,172.22,104.37,172.22z M104.37,137.24c-3.21,0-5.83,2.62-5.83,5.83
			v17.49c0,3.21,2.62,5.83,5.83,5.83c3.22,0,5.83-2.62,5.83-5.83v-17.49C110.2,139.85,107.59,137.24,104.37,137.24z"/>
	</g>
</g>
<g id="Boat">
	<g id="Background">
		<g id="Layer_9">
		</g>
		<g id="Layer_8">
		</g>
	</g>
	<g id="Seat">
	</g>
</g>
<g id="Dolphin">
	<g id="Background_2_">
		<g id="X_3_">
		</g>
		<g id="X_2_">
		</g>
	</g>
	<g id="Fin_1_">
	</g>
	<g id="Body_1_">
	</g>
</g>
<g id="Bubbles_1_">
	<g id="Background_3_">
		<g id="X_4_">
		</g>
	</g>
	<g id="Bubbles">
	</g>
	<g id="Fish">
	</g>
</g>
<g id="Seagull">
	<g id="Background_4_">
		<g id="X_6_">
		</g>
		<g id="X_5_">
		</g>
	</g>
	<g id="Beak">
	</g>
	<g id="Body_2_">
	</g>
	<g id="Wing">
	</g>
</g>
<g id="Mermaid">
	<g id="Background_5_">
		<g id="X_7_">
		</g>
	</g>
	<g id="Tail">
	</g>
	<g id="Body_3_">
	</g>
	<g id="Hair">
	</g>
</g>
<g id="Calm_Waves">
	<g id="Background_6_">
		<g id="X_8_">
		</g>
	</g>
	<g id="Waves">
	</g>
</g>
<g id="Crashing_Waves">
	<g id="Background_7_">
		<g id="X_10_">
		</g>
		<g id="X_9_">
		</g>
	</g>
</g>
</svg>
